<svg width="23" height="25" viewBox="0 0 23 25" fill="none" xmlns="http://www.w3.org/2000/svg">
<g id="bars-solid 2" clip-path="url(#clip0_173_105)">
<path id="Vector" d="M0.715332 4.6875C0.715332 3.82324 1.4239 3.125 2.30095 3.125H21.3283C22.2054 3.125 22.9139 3.82324 22.9139 4.6875C22.9139 5.55176 22.2054 6.25 21.3283 6.25H2.30095C1.4239 6.25 0.715332 5.55176 0.715332 4.6875ZM0.715332 12.5C0.715332 11.6357 1.4239 10.9375 2.30095 10.9375H21.3283C22.2054 10.9375 22.9139 11.6357 22.9139 12.5C22.9139 13.3643 22.2054 14.0625 21.3283 14.0625H2.30095C1.4239 14.0625 0.715332 13.3643 0.715332 12.5ZM22.9139 20.3125C22.9139 21.1768 22.2054 21.875 21.3283 21.875H2.30095C1.4239 21.875 0.715332 21.1768 0.715332 20.3125C0.715332 19.4482 1.4239 18.75 2.30095 18.75H21.3283C22.2054 18.75 22.9139 19.4482 22.9139 20.3125Z" fill="white"/>
</g>
<defs>
<clipPath id="clip0_173_105">
<rect width="22.1986" height="25" fill="white" transform="translate(0.715332)"/>
</clipPath>
</defs>
</svg>
