<svg width="30" height="30" viewBox="0 0 30 30" fill="none" xmlns="http://www.w3.org/2000/svg">
<g id="cart-shopping-solid 2" clip-path="url(#clip0_173_99)">
<path id="Vector" d="M0 1.40625C0 0.626953 0.557292 0 1.25 0H3.61979C4.76562 0 5.78125 0.75 6.25521 1.875H27.6615C29.0312 1.875 30.0312 3.33984 29.6719 4.82812L27.5365 13.752C27.0938 15.5918 25.6094 16.875 23.9167 16.875H8.89062L9.17188 18.5449C9.28646 19.207 9.80208 19.6875 10.401 19.6875H25.4167C26.1094 19.6875 26.6667 20.3145 26.6667 21.0938C26.6667 21.873 26.1094 22.5 25.4167 22.5H10.401C8.59896 22.5 7.05208 21.0586 6.71875 19.0723L4.03125 3.19336C3.99479 2.9707 3.82292 2.8125 3.61979 2.8125H1.25C0.557292 2.8125 0 2.18555 0 1.40625ZM6.66667 27.1875C6.66667 26.8182 6.73133 26.4524 6.85697 26.1112C6.9826 25.77 7.16675 25.4599 7.3989 25.1988C7.63105 24.9376 7.90664 24.7304 8.20996 24.5891C8.51327 24.4477 8.83836 24.375 9.16667 24.375C9.49497 24.375 9.82006 24.4477 10.1234 24.5891C10.4267 24.7304 10.7023 24.9376 10.9344 25.1988C11.1666 25.4599 11.3507 25.77 11.4764 26.1112C11.602 26.4524 11.6667 26.8182 11.6667 27.1875C11.6667 27.5568 11.602 27.9226 11.4764 28.2638C11.3507 28.605 11.1666 28.9151 10.9344 29.1762C10.7023 29.4374 10.4267 29.6446 10.1234 29.7859C9.82006 29.9273 9.49497 30 9.16667 30C8.83836 30 8.51327 29.9273 8.20996 29.7859C7.90664 29.6446 7.63105 29.4374 7.3989 29.1762C7.16675 28.9151 6.9826 28.605 6.85697 28.2638C6.73133 27.9226 6.66667 27.5568 6.66667 27.1875ZM24.1667 24.375C24.8297 24.375 25.4656 24.6713 25.9344 25.1988C26.4033 25.7262 26.6667 26.4416 26.6667 27.1875C26.6667 27.9334 26.4033 28.6488 25.9344 29.1762C25.4656 29.7037 24.8297 30 24.1667 30C23.5036 30 22.8677 29.7037 22.3989 29.1762C21.9301 28.6488 21.6667 27.9334 21.6667 27.1875C21.6667 26.4416 21.9301 25.7262 22.3989 25.1988C22.8677 24.6713 23.5036 24.375 24.1667 24.375Z" fill="#323C42"/>
</g>
<defs>
<clipPath id="clip0_173_99">
<rect width="30" height="30" fill="white"/>
</clipPath>
</defs>
</svg>
