<svg width="40" height="40" viewBox="0 0 40 40" fill="none" xmlns="http://www.w3.org/2000/svg">
<g id="circle-user-regular 1" clip-path="url(#clip0_173_93)">
<path id="Vector" d="M31.7578 31.2188C30.2656 27.5703 26.6797 25 22.5 25H17.5C13.3203 25 9.73438 27.5703 8.24219 31.2188C5.46094 28.2969 3.75 24.3516 3.75 20C3.75 11.0234 11.0234 3.75 20 3.75C28.9766 3.75 36.25 11.0234 36.25 20C36.25 24.3516 34.5391 28.2969 31.7578 31.2188ZM28.625 33.7734C26.125 35.3438 23.1719 36.25 20 36.25C16.8281 36.25 13.875 35.3438 11.3672 33.7734C11.9375 30.9062 14.4688 28.75 17.5 28.75H22.5C25.5312 28.75 28.0625 30.9062 28.6328 33.7734H28.625ZM20 40C25.3043 40 30.3914 37.8929 34.1421 34.1421C37.8929 30.3914 40 25.3043 40 20C40 14.6957 37.8929 9.60859 34.1421 5.85786C30.3914 2.10714 25.3043 0 20 0C14.6957 0 9.60859 2.10714 5.85786 5.85786C2.10714 9.60859 0 14.6957 0 20C0 25.3043 2.10714 30.3914 5.85786 34.1421C9.60859 37.8929 14.6957 40 20 40ZM20 18.75C19.1712 18.75 18.3763 18.4208 17.7903 17.8347C17.2042 17.2487 16.875 16.4538 16.875 15.625C16.875 14.7962 17.2042 14.0013 17.7903 13.4153C18.3763 12.8292 19.1712 12.5 20 12.5C20.8288 12.5 21.6237 12.8292 22.2097 13.4153C22.7958 14.0013 23.125 14.7962 23.125 15.625C23.125 16.4538 22.7958 17.2487 22.2097 17.8347C21.6237 18.4208 20.8288 18.75 20 18.75ZM13.125 15.625C13.125 17.4484 13.8493 19.197 15.1386 20.4864C16.428 21.7757 18.1766 22.5 20 22.5C21.8234 22.5 23.572 21.7757 24.8614 20.4864C26.1507 19.197 26.875 17.4484 26.875 15.625C26.875 13.8016 26.1507 12.053 24.8614 10.7636C23.572 9.47433 21.8234 8.75 20 8.75C18.1766 8.75 16.428 9.47433 15.1386 10.7636C13.8493 12.053 13.125 13.8016 13.125 15.625Z" fill="#FF6C6C"/>
</g>
<defs>
<clipPath id="clip0_173_93">
<rect width="40" height="40" fill="white"/>
</clipPath>
</defs>
</svg>
