<svg width="32" height="32" viewBox="0 0 32 32" fill="none" xmlns="http://www.w3.org/2000/svg">
<g id="phone-volume-solid 1" clip-path="url(#clip0_173_88)">
<path id="Vector" d="M17.5 5.42623e-06C25.5063 5.42623e-06 32 6.49376 32 14.5C32 15.3313 31.3312 16 30.5 16C29.6688 16 29 15.3313 29 14.5C29 8.15001 23.85 3.00001 17.5 3.00001C16.6688 3.00001 16 2.33126 16 1.50001C16 0.668756 16.6688 5.42623e-06 17.5 5.42623e-06ZM18 12C18.5304 12 19.0391 12.2107 19.4142 12.5858C19.7893 12.9609 20 13.4696 20 14C20 14.5304 19.7893 15.0391 19.4142 15.4142C19.0391 15.7893 18.5304 16 18 16C17.4696 16 16.9609 15.7893 16.5858 15.4142C16.2107 15.0391 16 14.5304 16 14C16 13.4696 16.2107 12.9609 16.5858 12.5858C16.9609 12.2107 17.4696 12 18 12ZM16 7.50001C16 6.66876 16.6688 6.00001 17.5 6.00001C22.1938 6.00001 26 9.80626 26 14.5C26 15.3313 25.3312 16 24.5 16C23.6688 16 23 15.3313 23 14.5C23 11.4625 20.5375 9.00001 17.5 9.00001C16.6688 9.00001 16 8.33126 16 7.50001ZM7.34375 0.0875054C8.55625 -0.243745 9.825 0.375006 10.3062 1.53751L12.8062 7.53751C13.2312 8.55626 12.9375 9.73751 12.0813 10.4313L9 12.9563C11.0813 17.3563 14.6438 20.9188 19.0438 23L21.5625 19.9188C22.2625 19.0625 23.4375 18.7688 24.4562 19.1938L30.4562 21.6938C31.6187 22.175 32.2375 23.4438 31.9062 24.6563L30.4062 30.1563C30.1125 31.2438 29.125 32 28 32C12.5375 32 0 19.4625 0 4.00001C0 2.87501 0.75625 1.88751 1.84375 1.58751L7.34375 0.0875054Z" fill="#FF6C6C"/>
</g>
<defs>
<clipPath id="clip0_173_88">
<rect width="32" height="32" fill="white"/>
</clipPath>
</defs>
</svg>
