<svg width="18" height="18" viewBox="0 0 18 18" fill="none" xmlns="http://www.w3.org/2000/svg">
<g id="truck-fast-solid 2" clip-path="url(#clip0_174_216)">
<path id="Vector" d="M3.15 0C2.40469 0 1.8 0.755859 1.8 1.6875V3.375H0.45C0.2025 3.375 0 3.62812 0 3.9375C0 4.24687 0.2025 4.5 0.45 4.5H1.8H7.65C7.8975 4.5 8.1 4.75313 8.1 5.0625C8.1 5.37187 7.8975 5.625 7.65 5.625H1.8H1.35C1.1025 5.625 0.9 5.87813 0.9 6.1875C0.9 6.49687 1.1025 6.75 1.35 6.75H1.8H6.75C6.9975 6.75 7.2 7.00313 7.2 7.3125C7.2 7.62187 6.9975 7.875 6.75 7.875H1.8H0.45C0.2025 7.875 0 8.12813 0 8.4375C0 8.74687 0.2025 9 0.45 9H1.8H5.85C6.0975 9 6.3 9.25313 6.3 9.5625C6.3 9.87187 6.0975 10.125 5.85 10.125H1.8V14.625C1.8 16.4883 3.00937 18 4.5 18C5.99062 18 7.2 16.4883 7.2 14.625H10.8C10.8 16.4883 12.0094 18 13.5 18C14.9906 18 16.2 16.4883 16.2 14.625H17.1C17.5978 14.625 18 14.1223 18 13.5C18 12.8777 17.5978 12.375 17.1 12.375V10.125V9V8.34258C17.1 7.74492 16.9116 7.17188 16.5741 6.75L14.4 4.03242C14.0625 3.61055 13.6041 3.375 13.1259 3.375H11.7V1.6875C11.7 0.755859 11.0953 0 10.35 0H3.15ZM15.3 8.34258V9H11.7V5.625H13.1259L15.3 8.34258ZM4.5 12.9375C4.85804 12.9375 5.20142 13.1153 5.45459 13.4318C5.70777 13.7482 5.85 14.1774 5.85 14.625C5.85 15.0726 5.70777 15.5018 5.45459 15.8182C5.20142 16.1347 4.85804 16.3125 4.5 16.3125C4.14196 16.3125 3.79858 16.1347 3.54541 15.8182C3.29223 15.5018 3.15 15.0726 3.15 14.625C3.15 14.1774 3.29223 13.7482 3.54541 13.4318C3.79858 13.1153 4.14196 12.9375 4.5 12.9375ZM12.15 14.625C12.15 14.1774 12.2922 13.7482 12.5454 13.4318C12.7986 13.1153 13.142 12.9375 13.5 12.9375C13.858 12.9375 14.2014 13.1153 14.4546 13.4318C14.7078 13.7482 14.85 14.1774 14.85 14.625C14.85 15.0726 14.7078 15.5018 14.4546 15.8182C14.2014 16.1347 13.858 16.3125 13.5 16.3125C13.142 16.3125 12.7986 16.1347 12.5454 15.8182C12.2922 15.5018 12.15 15.0726 12.15 14.625Z" fill="#FF3C53"/>
</g>
<defs>
<clipPath id="clip0_174_216">
<rect width="18" height="18" fill="white"/>
</clipPath>
</defs>
</svg>
